<svg width="30" height="60" viewBox="1 10 10" fill="none" xmlns="http://www.w3.org/2000/svg">
<path d="M24.9323 10.9209C24.9323 10.9209 25.8533 11.5909 26.302 12.2771C26.7507 12.9633 27.0892 13.375 27.3883 14.4487C27.6875 15.5224 27.7583 15.7645 27.8528 16.5718C27.9473 17.3791 28.0732 20.0108 27.9866 20.697C27.9 21.3832 27.5222 23.3852 27.1207 24.1521C26.7192 24.919 26.1052 26.0169 25.5542 26.6304C25.0032 27.244 25.6172 26.6627 25.0032 27.244C24.3892 27.8252 23.0824 28.9392 22.4999 29.2622C21.9174 29.5851 20.2171 30.3358 19.0284 30.909C17.8397 31.4822 13.833 33.4035 13.4079 33.6457C13.1088 33.8152 12.7939 33.9847 12.7939 33.9847C12.7939 33.9847 12.8568 37.8354 12.8568 38.3843C12.8568 38.9333 12.8883 40.12 12.7939 40.7739C12.6994 41.4278 12.5498 42.8324 12.0539 43.9142C12.0539 43.9142 11.1565 46.1342 9.83404 47.2079C8.51943 48.2815 6.66954 49.4682 3.7412 50.5822L0.143735 51.9465C0.143735 51.9465 0.104376 42.2673 0.143735 39.6679C0.183095 37.0685 -0.163268 35.3894 0.143735 32.5155C0.450739 29.6416 0.474364 28.7859 1.30878 27.4458C2.14321 26.1057 3.30823 24.6365 4.19776 23.9342C5.08728 23.2318 6.43338 22.2873 7.35439 21.916C8.2754 21.5446 13.4945 19.5022 13.4945 19.5022C13.4945 19.5022 20.1462 16.8705 21.02 16.3861C21.8938 15.9018 22.6573 15.4497 23.1139 15.0703C23.5705 14.6909 24.6804 13.7706 24.8851 13.2781C24.8851 13.2781 25.2708 12.487 25.1921 11.9058C25.1134 11.3245 24.9166 10.929 24.9166 10.929L24.9323 10.9209Z" fill="url(#paint0_linear_350_522)"/>
<path d="M0.0156067 0C0.0156067 0 16.5599 6.41721 19.7923 7.93621C23.0325 9.45522 22.5953 9.25214 22.5953 9.25214C22.5953 9.25214 24.4925 10.4625 24.7267 10.8118C24.961 11.1611 25 11.4372 25 11.7947C25 12.1521 24.9688 12.9238 24.4769 13.4924C23.985 14.061 22.8841 15.2307 21.3304 16.0268C21.3304 16.0268 21.2601 16.1649 19.6049 16.8716C17.9497 17.5783 13.5618 19.3897 13.3979 19.4384L13.2339 19.4872L11.649 18.8373C11.649 18.8373 6.93317 17.1884 5.51218 16.3192C5.51218 16.3192 2.49844 14.7027 1.58495 12.8344C1.58495 12.8344 0.694878 11.1286 0.390381 9.95072C0.0858839 8.77288 0.00780762 7.80624 0 5.8892C0 3.97217 0 0 0 0H0.0156067Z" fill="url(#paint1_linear_350_522)"/>
<defs>
<linearGradient id="paint0_linear_350_522" x1="-5.14618" y1="42.5176" x2="31.7141" y2="21.7677" gradientUnits="userSpaceOnUse">
<stop offset="0.08" stop-color="#E2DCDC"/>
<stop offset="0.43" stop-color="white"/>
<stop offset="0.64" stop-color="#FCFCFC"/>
<stop offset="0.77" stop-color="#F5F4F4"/>
<stop offset="0.87" stop-color="#EAE5E5"/>
<stop offset="0.92" stop-color="#E2DCDC"/>
</linearGradient>
<linearGradient id="paint1_linear_350_522" x1="0.0156152" y1="9.73953" x2="25.0078" y2="9.73953" gradientUnits="userSpaceOnUse">
<stop offset="0.46" stop-color="#F7F5F5"/>
<stop offset="0.83" stop-color="#FCFAFA"/>
</linearGradient>
</defs>
</svg>
